<svg xmlns="http://www.w3.org/2000/svg" xmlns:xlink="http://www.w3.org/1999/xlink" width="500" zoomAndPan="magnify" viewBox="0 0 375 374.999991" height="500" preserveAspectRatio="xMidYMid meet" version="1.0"><defs><clipPath id="5e9cfd5cb8"><path d="M 1.226562 37.5 L 307 37.5 L 307 335.25 L 1.226562 335.25 Z M 1.226562 37.5 " clip-rule="nonzero"/></clipPath><clipPath id="127fa5d7a4"><path d="M 72 137 L 374.726562 137 L 374.726562 303 L 72 303 Z M 72 137 " clip-rule="nonzero"/></clipPath></defs><g clip-path="url(#5e9cfd5cb8)"><path fill="#9900cc" d="M 156.832031 220.125 L 58.296875 145.632812 L 58.296875 335.570312 L 1.585938 335.570312 L 1.585938 37.507812 L 95.726562 108.683594 L 95.738281 108.683594 L 156.832031 154.875 L 306.386719 39.660156 L 306.386719 107.054688 L 199.980469 187.503906 L 186.898438 197.398438 Z M 249.511719 250.027344 L 249.675781 335.578125 L 306.386719 335.578125 L 306.21875 207.152344 Z M 249.511719 250.027344 " fill-opacity="1" fill-rule="nonzero"/></g><g clip-path="url(#127fa5d7a4)"><path fill="#ffde59" d="M 288.320312 137.792969 L 156.832031 237.207031 L 72.804688 173.675781 L 72.804688 238.929688 L 156.832031 302.460938 L 374.625 137.792969 Z M 288.320312 137.792969 " fill-opacity="1" fill-rule="nonzero"/></g></svg>