<?xml version="1.0" encoding="UTF-8"?>
<svg version="1.1" xmlns="http://www.w3.org/2000/svg" width="256" height="256">
<path d="M0 0 C84.48 0 168.96 0 256 0 C256 84.48 256 168.96 256 256 C171.52 256 87.04 256 0 256 C0 171.52 0 87.04 0 0 Z " fill="#592FD1" transform="translate(0,0)"/>
<path d="M0 0 C-0.02522232 0.54964417 -0.05044464 1.09928833 -0.07643127 1.66558838 C-0.32429142 7.44216361 -0.44931856 13.21260433 -0.5065918 18.99414062 C-0.54350788 21.14397857 -0.61063738 23.29353539 -0.7097168 25.44140625 C-1.58412454 37.36165335 -1.58412454 37.36165335 2.59387207 48.09909058 C6.58333467 51.81413686 11.12115681 54.43130749 15.94619751 56.91802979 C18.55768941 58.29379813 20.89931619 59.94257713 23.2734375 61.69140625 C25.35509017 63.14894719 27.43715779 64.60572792 29.5234375 66.05664062 C30.2040625 66.53423828 30.8846875 67.01183594 31.5859375 67.50390625 C32.46838135 68.11987671 32.46838135 68.11987671 33.36865234 68.74829102 C35.06271687 70.04812173 36.52479824 71.459016 38 73 C26.06029652 73.84946507 17.39947681 74.41794532 7.81933594 66.42626953 C3.80834804 63.28185309 -0.55157707 60.60238566 -4.8125 57.8125 C-6.59157712 56.63412323 -8.36898833 55.45322653 -10.14453125 54.26953125 C-10.91128174 53.76010986 -11.67803223 53.25068848 -12.46801758 52.72583008 C-13.30357178 52.15630615 -14.13912598 51.58678223 -15 51 C-15.90890236 50.50526436 -15.90890236 50.50526436 -16.83616638 50.00053406 C-21.64142228 47.15130293 -21.64142228 47.15130293 -22.60673523 44.05192566 C-22.81075049 41.66418353 -22.78815191 39.37461024 -22.68359375 36.98046875 C-22.67368912 36.12189774 -22.66378448 35.26332672 -22.65357971 34.3787384 C-22.61450927 31.64655969 -22.52671235 28.91845583 -22.4375 26.1875 C-22.40237613 24.3314384 -22.37043899 22.47531357 -22.34179688 20.61914062 C-22.26477258 16.07786606 -22.14404968 11.53962286 -22 7 C-18.89878289 5.82538445 -15.79357759 4.66169544 -12.6875 3.5 C-11.80642578 3.16613281 -10.92535156 2.83226563 -10.01757812 2.48828125 C-9.17001953 2.17246094 -8.32246094 1.85664062 -7.44921875 1.53125 C-6.66893311 1.23798828 -5.88864746 0.94472656 -5.0847168 0.64257812 C-3 0 -3 0 0 0 Z " fill="#FBF9FD" transform="translate(107,71)"/>
<path d="M0 0 C3.12398703 -0.20690162 6.24617985 -0.32876795 9.375 -0.4375 C10.24511719 -0.49615234 11.11523438 -0.55480469 12.01171875 -0.61523438 C18.65551704 -0.787481 22.00022532 0.91465495 27.16552734 4.96801758 C29.8918273 6.92245294 32.52918319 8.33010465 35.54161072 9.76577759 C57.35291941 20.21447831 57.35291941 20.21447831 60.86212158 29.20996094 C62.33553009 35.1186991 62.41594926 41.00647284 62.1875 47.0625 C62.15658264 47.92376495 62.12566528 48.78502991 62.09381104 49.6723938 C61.96932924 52.15679607 61.78052766 54.6216499 61.54296875 57.09765625 C61.47340469 57.84998535 61.40384064 58.60231445 61.33216858 59.37744141 C60.84744019 62.92481735 60.46094371 64.63079132 57.61889648 66.90722656 C54.39334359 68.25313639 51.1711255 69.52230914 47.875 70.6875 C46.65554687 71.12449219 45.43609375 71.56148438 44.1796875 72.01171875 C41 73 41 73 38 73 C38.02450981 72.165541 38.02450981 72.165541 38.04951477 71.31422424 C38.20763618 65.48920068 38.27328222 59.66817897 38.28686523 53.84106445 C38.30383151 51.67115897 38.34386037 49.50130029 38.40795898 47.33227539 C39.22188918 35.80408099 39.22188918 35.80408099 35.77639771 25.18188477 C32.35720785 21.81706231 28.32697045 19.96319513 24 18 C22.64586721 17.09967824 21.3119713 16.16652772 20.01953125 15.1796875 C13.95087858 10.81853637 7.86617422 6.49376856 1.6953125 2.27734375 C1.13585937 1.85582031 0.57640625 1.43429688 0 1 C0 0.67 0 0.34 0 0 Z " fill="#FBF8FD" transform="translate(111,112)"/>
<path d="M0 0 C1.43880293 0.3095024 2.87700199 0.62181292 4.31494141 0.93530273 C5.5163829 1.19572609 5.5163829 1.19572609 6.74209595 1.46141052 C9.40479349 2.09655748 11.85766927 2.99120877 14.375 4.0625 C16.91275094 5.12996666 19.38554439 6.1285148 22 7 C22 24.49 22 41.98 22 60 C18.7 58.02 15.4 56.04 12 54 C10.82018555 53.50177734 9.64037109 53.00355469 8.42480469 52.49023438 C4.65542765 50.73732082 2.57454112 49.30134573 0 46 C-2.01404902 38.41930968 -1.12089253 30.24675527 -0.75 22.5 C-0.68976305 20.3204588 -0.63501783 18.14075847 -0.5859375 15.9609375 C-0.45412956 10.63713716 -0.25378446 5.31930695 0 0 Z " fill="#FCF9FD" transform="translate(149,71)"/>
<path d="M0 0 C3.63 2.31 7.26 4.62 11 7 C12.14057861 7.45898682 13.28115723 7.91797363 14.45629883 8.39086914 C17.97518378 9.80692392 19.68658491 10.95237129 22 14 C23.86870113 21.58550713 23.02532711 29.70919773 22.6875 37.4375 C22.63229388 39.62162239 22.58210885 41.80587786 22.53710938 43.99023438 C22.41617862 49.32973475 22.23243066 54.66425254 22 60 C20.56408794 59.70278468 19.12942592 59.39952623 17.6953125 59.09375 C16.89625488 58.92552734 16.09719727 58.75730469 15.27392578 58.58398438 C12.27459941 57.81370429 9.7384516 56.42875735 7 55 C4.69 54.34 2.38 53.68 0 53 C0 35.51 0 18.02 0 0 Z " fill="#FDFBFD" transform="translate(85,125)"/>
<path d="M0 0 C2.97 0.33 5.94 0.66 9 1 C8.814375 1.763125 8.62875 2.52625 8.4375 3.3125 C7.77180827 6.08967375 7.77180827 6.08967375 9 9 C8.01 9 7.02 9 6 9 C6 22.2 6 35.4 6 49 C7.32 49.66 8.64 50.32 10 51 C10.33 50.67 10.66 50.34 11 50 C9.68 49.34 8.36 48.68 7 48 C7 47.34 7 46.68 7 46 C11.22673662 47.45830212 14.56712709 49.67178153 18.125 52.3125 C24.94264624 57.28414893 31.88528691 62.05641469 38.86572266 66.79614258 C40.04013916 67.59507935 40.04013916 67.59507935 41.23828125 68.41015625 C41.93993408 68.88590088 42.64158691 69.36164551 43.36450195 69.85180664 C45 71 45 71 46 72 C46.09295815 73.44289787 46.11746513 74.89029785 46.11352539 76.33618164 C46.11341209 77.71750023 46.11341209 77.71750023 46.11329651 79.12672424 C46.10813522 80.12775681 46.10297394 81.12878937 46.09765625 82.16015625 C46.0962413 83.17975937 46.09482635 84.19936249 46.09336853 85.24986267 C46.08775097 88.52077107 46.0751955 91.79161213 46.0625 95.0625 C46.05748726 97.27408756 46.05292396 99.48567618 46.04882812 101.69726562 C46.03777584 107.13153357 46.02102063 112.56576197 46 118 C45.01 118.495 45.01 118.495 44 119 C44 104.81 44 90.62 44 76 C42.35 75.67 40.7 75.34 39 75 C37.14160156 73.9753418 37.14160156 73.9753418 35.390625 72.69921875 C34.72611328 72.22202393 34.06160156 71.7448291 33.37695312 71.25317383 C32.67505859 70.73650146 31.97316406 70.2198291 31.25 69.6875 C29.74500059 68.60127297 28.23978551 67.51534472 26.734375 66.4296875 C25.96029297 65.86733398 25.18621094 65.30498047 24.38867188 64.72558594 C20.45308013 61.88249902 16.47423291 59.10117454 12.5 56.3125 C5.15308937 51.15308937 5.15308937 51.15308937 4 50 C3.90704185 48.55710213 3.88253487 47.10970215 3.88647461 45.66381836 C3.88655014 44.7429393 3.88662567 43.82206024 3.88670349 42.87327576 C3.89186478 41.87224319 3.89702606 40.87121063 3.90234375 39.83984375 C3.9037587 38.82024063 3.90517365 37.80063751 3.90663147 36.75013733 C3.91224903 33.47922893 3.9248045 30.20838787 3.9375 26.9375 C3.94251274 24.72591244 3.94707604 22.51432382 3.95117188 20.30273438 C3.96222416 14.86846643 3.97897937 9.43423803 4 4 C3.44014404 4.21205078 2.88028809 4.42410156 2.3034668 4.64257812 C-0.23329974 5.60014633 -2.77283511 6.55014699 -5.3125 7.5 C-6.63411133 8.00080078 -6.63411133 8.00080078 -7.98242188 8.51171875 C-9.25375977 8.98544922 -9.25375977 8.98544922 -10.55078125 9.46875 C-11.33106689 9.76201172 -12.11135254 10.05527344 -12.9152832 10.35742188 C-15 11 -15 11 -18 11 C-20.17808601 32.46481796 -20.17808601 32.46481796 -15.4921875 52.81542969 C-11.61677928 56.87623552 -6.81516125 58.83815052 -1.65039062 60.83496094 C3.19598514 62.96529487 7.34145451 66.1744877 11.625 69.25 C13.23963841 70.36308181 14.85659587 71.47281219 16.4765625 72.578125 C17.65115205 73.38525605 18.82567712 74.19248102 20 75 C16.93109813 76.53445094 14.29905734 75.54984289 11 75 C10.93941406 74.40703125 10.87882812 73.8140625 10.81640625 73.203125 C9.65022887 70.05612001 7.82601849 69.35879511 4.9375 67.75 C4.01839844 67.22921875 3.09929687 66.7084375 2.15234375 66.171875 C1.44207031 65.78515625 0.73179688 65.3984375 0 65 C0.33 65.99 0.66 66.98 1 68 C1.8355542 68.33427002 2.6711084 68.66854004 3.53198242 69.01293945 C6 71 6 71 6.44302368 73.11972046 C6.58070168 76.02249069 6.56075757 78.88773621 6.48828125 81.79296875 C6.48120651 82.85413406 6.47413177 83.91529938 6.46684265 85.00862122 C6.43882466 88.40229403 6.37606956 91.7943248 6.3125 95.1875 C6.28742684 97.48630432 6.26461197 99.78513447 6.24414062 102.08398438 C6.1889739 107.72321774 6.10527355 113.36149159 6 119 C4.515 118.505 4.515 118.505 3 118 C3.33 102.82 3.66 87.64 4 72 C2.68 71.34 1.36 70.68 0 70 C-2.7847144 68.41070452 -5.51556573 66.73649554 -8.25 65.0625 C-9.36761719 64.39831055 -9.36761719 64.39831055 -10.5078125 63.72070312 C-11.21164063 63.28822266 -11.91546875 62.85574219 -12.640625 62.41015625 C-13.28547852 62.01965088 -13.93033203 61.62914551 -14.59472656 61.22680664 C-15.0584668 60.82196045 -15.52220703 60.41711426 -16 60 C-16 59.01 -16 58.02 -16 57 C-15.67 57.66 -15.34 58.32 -15 59 C-11.97065509 59.65772428 -11.97065509 59.65772428 -9 60 C-9.66 59.38125 -10.32 58.7625 -11 58.125 C-13 56 -13 56 -13 54 C-14.175625 54.0928125 -14.175625 54.0928125 -15.375 54.1875 C-16.24125 54.125625 -17.1075 54.06375 -18 54 C-20.54567841 50.18148238 -20.31442396 47.03400903 -20.34375 42.60546875 C-20.3583728 41.78049393 -20.37299561 40.9555191 -20.38806152 40.10554504 C-20.43456707 37.46624599 -20.46874599 34.82702108 -20.5 32.1875 C-20.54127785 28.72238344 -20.59504855 25.25778427 -20.65625 21.79296875 C-20.66416565 20.60673164 -20.66416565 20.60673164 -20.67224121 19.39653015 C-20.75278101 14.88959678 -21.30400191 11.24718883 -23 7 C-17.75614911 5.2520497 -13.52677733 4.80607799 -8 5 C-7.67 4.34 -7.34 3.68 -7 3 C-5 2.66666667 -3 2.33333333 -1 2 C-0.67 1.34 -0.34 0.68 0 0 Z " fill="#574ABF" transform="translate(103,67)"/>
<path d="M0 0 C0.66 0 1.32 0 2 0 C1.98810135 0.56074722 1.9762027 1.12149445 1.96394348 1.69923401 C1.85053771 7.55643284 1.81465982 13.41053506 1.82299805 19.26879883 C1.81603881 21.45221913 1.78956729 23.63567047 1.74291992 25.81860352 C0.94718959 37.99270184 0.94718959 37.99270184 5.21240234 48.81591797 C8.0837688 50.63550184 10.84537908 51.74218841 14 53 C16.97 54.98 19.94 56.96 23 59 C23.33 42.17 23.66 25.34 24 8 C24.33 8 24.66 8 25 8 C25.33 24.5 25.66 41 26 58 C26.99 58 27.98 58 29 58 C28.835 58.5775 28.67 59.155 28.5 59.75 C27.85537969 62.26664369 27.85537969 62.26664369 28 66 C27.93568293 67.60843982 27.86196875 69.21651858 27.78125 70.82421875 C27.33068319 80.15007146 26.89459732 89.47495626 26.8125 98.8125 C26.79960937 99.51656982 26.78671875 100.22063965 26.7734375 100.94604492 C26.77005679 102.63238513 26.8751932 104.31828124 27 106 C27.99 106.99 27.99 106.99 29 108 C29 108.99 29 109.98 29 111 C24.25 112 24.25 112 22 112 C20.66404533 112.32266702 19.33103298 112.65759659 18 113 C16.90171875 113.21269531 16.90171875 113.21269531 15.78125 113.4296875 C11.36595481 114.29157731 8.54821058 115.13413761 5 118 C4.01 117.67 3.02 117.34 2 117 C2 116.34 2 115.68 2 115 C6.83713786 112.43916231 11.68144497 110.30062299 16.80078125 108.35546875 C17.96391846 107.91227295 19.12705566 107.46907715 20.32543945 107.01245117 C21.20804443 106.67834229 22.09064941 106.3442334 23 106 C26.88345961 85.33825082 26.88345961 85.33825082 21.58398438 65.9901123 C14.11475109 58.04347828 3.70418594 52.99955117 -6.0625 48.43823242 C-7.031875 47.96361572 -8.00125 47.48899902 -9 47 C-9 46.67 -9 46.34 -9 46 C-7.02 46 -5.04 46 -3 46 C-3 46.66 -3 47.32 -3 48 C-1.68 48 -0.36 48 1 48 C0.67 47.67 0.34 47.34 0 47 C-0.09304018 45.52645652 -0.11746265 44.04849409 -0.11352539 42.57202148 C-0.11344986 41.63112167 -0.11337433 40.69022186 -0.11329651 39.72080994 C-0.10813522 38.69790359 -0.10297394 37.67499725 -0.09765625 36.62109375 C-0.0962413 35.57929459 -0.09482635 34.53749542 -0.09336853 33.46412659 C-0.0877508 30.12188906 -0.0751953 26.77971743 -0.0625 23.4375 C-0.05748728 21.17773534 -0.05292398 18.91796963 -0.04882812 16.65820312 C-0.03777561 11.10544609 -0.02102024 5.55272775 0 0 Z " fill="#5E3DB7" transform="translate(147,71)"/>
<path d="M0 0 C3.55021173 1.30370358 6.50133058 2.85523603 9.609375 5.00390625 C10.44597656 5.57947266 11.28257812 6.15503906 12.14453125 6.74804688 C13.43423828 7.64620117 13.43423828 7.64620117 14.75 8.5625 C15.62527344 9.16513672 16.50054687 9.76777344 17.40234375 10.38867188 C23.82430686 14.82430686 23.82430686 14.82430686 25 16 C25.09295815 17.44289787 25.11746513 18.89029785 25.11352539 20.33618164 C25.11344986 21.2570607 25.11337433 22.17793976 25.11329651 23.12672424 C25.10813522 24.12775681 25.10297394 25.12878937 25.09765625 26.16015625 C25.0962413 27.17975937 25.09482635 28.19936249 25.09336853 29.24986267 C25.08775097 32.52077107 25.0751955 35.79161213 25.0625 39.0625 C25.05748726 41.27408756 25.05292396 43.48567618 25.04882812 45.69726562 C25.03777584 51.13153357 25.02102063 56.56576197 25 62 C24.01 62.495 24.01 62.495 23 63 C23 48.81 23 34.62 23 20 C21.35 19.67 19.7 19.34 18 19 C15.6289196 17.60459278 13.42649118 16.20252779 11.1875 14.625 C10.59001953 14.22539062 9.99253906 13.82578125 9.37695312 13.4140625 C7.66796875 12.2265625 7.66796875 12.2265625 5 10 C5 9.01 5 8.02 5 7 C4.34 6.67 3.68 6.34 3 6 C3.66 6 4.32 6 5 6 C3.35 4.02 1.7 2.04 0 0 Z " fill="#6038BF" transform="translate(124,123)"/>
<path d="M0 0 C5.54850435 -0.39385398 8.31444447 0.31971578 12.8125 3.5625 C14.34583984 4.64724609 14.34583984 4.64724609 15.91015625 5.75390625 C16.92980469 6.49511719 17.94945313 7.23632812 19 8 C20.91498582 9.3357463 22.83150478 10.66929906 24.75 12 C26.16765436 12.9985993 27.5847231 13.99803406 29 15 C25.93109813 16.53445094 23.29905734 15.54984289 20 15 C19.93941406 14.40703125 19.87882812 13.8140625 19.81640625 13.203125 C18.65022887 10.05612001 16.82601849 9.35879511 13.9375 7.75 C13.01839844 7.22921875 12.09929687 6.7084375 11.15234375 6.171875 C10.44207031 5.78515625 9.73179688 5.3984375 9 5 C9.33 5.99 9.66 6.98 10 8 C10.8355542 8.33427002 11.6711084 8.66854004 12.53198242 9.01293945 C15 11 15 11 15.44302368 13.11972046 C15.58070168 16.02249069 15.56075757 18.88773621 15.48828125 21.79296875 C15.47766914 23.38471672 15.47766914 23.38471672 15.46684265 25.00862122 C15.43882466 28.40229403 15.37606956 31.7943248 15.3125 35.1875 C15.28742684 37.48630432 15.26461197 39.78513447 15.24414062 42.08398438 C15.1889739 47.72321774 15.10527355 53.36149159 15 59 C14.01 58.67 13.02 58.34 12 58 C12.33 42.82 12.66 27.64 13 12 C10.95790821 10.9789541 8.91102578 9.96186819 6.8125 9.0625 C5 8 5 8 4 5 C3.34 4.67 2.68 4.34 2 4 C2 3.34 2 2.68 2 2 C1.34 2 0.68 2 0 2 C0 1.34 0 0.68 0 0 Z " fill="#5E3EBC" transform="translate(94,127)"/>
<path d="M0 0 C0.66 0.33 1.32 0.66 2 1 C2.01981934 2.17095215 2.03963867 3.3419043 2.06005859 4.54833984 C2.13600081 8.88336074 2.2247352 13.21804095 2.31738281 17.55273438 C2.35571977 19.43059576 2.39056427 21.30853176 2.421875 23.18652344 C2.46742363 25.88243321 2.52543375 28.57782712 2.5859375 31.2734375 C2.59748871 32.11619232 2.60903992 32.95894714 2.62094116 33.82723999 C2.54193181 38.39020957 2.54193181 38.39020957 5 42 C5 42.99 5 43.98 5 45 C0.25 46 0.25 46 -2 46 C-3.33595467 46.32266702 -4.66896702 46.65759659 -6 47 C-6.7321875 47.14179688 -7.464375 47.28359375 -8.21875 47.4296875 C-12.63404519 48.29157731 -15.45178942 49.13413761 -19 52 C-19.99 51.67 -20.98 51.34 -22 51 C-22 50.34 -22 49.68 -22 49 C-15.09320428 45.34346109 -8.44172564 42.86220217 -1 40 C-0.67 26.8 -0.34 13.6 0 0 Z " fill="#692DB6" transform="translate(171,137)"/>
<path d="M0 0 C0.66 0.33 1.32 0.66 2 1 C1.93192139 2.13429443 1.86384277 3.26858887 1.79370117 4.43725586 C1.55691578 8.67953062 1.40867732 12.92123684 1.28588867 17.16821289 C1.22083314 18.99929211 1.13234266 20.82970405 1.01928711 22.65844727 C0.02630197 32.67026727 0.02630197 32.67026727 3.31793213 41.73419189 C6.81157483 44.92659324 10.76666849 46.95327177 15 49 C15 49.33 15 49.66 15 50 C12.75 50.25 12.75 50.25 10 50 C7.6875 48.125 7.6875 48.125 6 46 C6 45.34 6 44.68 6 44 C4.824375 44.0928125 4.824375 44.0928125 3.625 44.1875 C2.75875 44.125625 1.8925 44.06375 1 44 C-1.02302092 40.96546862 -1.24982743 40.40098546 -1.24291992 37.00341797 C-1.24599655 36.20604218 -1.24907318 35.40866638 -1.25224304 34.58712769 C-1.24505753 33.73079742 -1.23787201 32.87446716 -1.23046875 31.9921875 C-1.22978142 30.67034958 -1.22978142 30.67034958 -1.2290802 29.32180786 C-1.22606056 27.46078137 -1.21818285 25.59975735 -1.20581055 23.73876953 C-1.18752648 20.8791415 -1.18530107 18.01983669 -1.18554688 15.16015625 C-1.18063271 13.35416385 -1.17480483 11.54817365 -1.16796875 9.7421875 C-1.16685593 8.88180878 -1.1657431 8.02143005 -1.16459656 7.13497925 C-1.11605499 1.11605499 -1.11605499 1.11605499 0 0 Z M3 47 C3.33 47.66 3.66 48.32 4 49 C7.02934491 49.65772428 7.02934491 49.65772428 10 50 C10 50.66 10 51.32 10 52 C10.66 52 11.32 52 12 52 C12 52.66 12 53.32 12 54 C13.32 54.66 14.64 55.32 16 56 C15.01 56.495 15.01 56.495 14 57 C10.04 54.36 6.08 51.72 2 49 C2.33 48.34 2.66 47.68 3 47 Z " fill="#5B4DC1" transform="translate(84,77)"/>
<path d="M0 0 C0.33 0 0.66 0 1 0 C1.33 16.5 1.66 33 2 50 C2.99 50 3.98 50 5 50 C4.835 50.5775 4.67 51.155 4.5 51.75 C3.85537969 54.26664369 3.85537969 54.26664369 4 58 C3.9353198 59.80760518 3.86156014 61.61489678 3.78125 63.421875 C3.71357422 64.95908203 3.71357422 64.95908203 3.64453125 66.52734375 C3.59683594 67.59082031 3.54914063 68.65429688 3.5 69.75 C3.42845703 71.36841797 3.42845703 71.36841797 3.35546875 73.01953125 C3.23776114 75.6797232 3.11924254 78.33987648 3 81 C2.67 81 2.34 81 2 81 C1.67 73.74 1.34 66.48 1 59 C0.01 59.495 0.01 59.495 -1 60 C-1.66 59.34 -2.32 58.68 -3 58 C-3 57.34 -3 56.68 -3 56 C-2.34 56 -1.68 56 -1 56 C-0.67 37.52 -0.34 19.04 0 0 Z " fill="#7348C1" transform="translate(171,79)"/>
<path d="M0 0 C3.83990988 1.38375131 6.97052564 3.16309349 10.3125 5.5 C11.19550781 6.1084375 12.07851562 6.716875 12.98828125 7.34375 C13.98408203 8.16359375 13.98408203 8.16359375 15 9 C15 9.66 15 10.32 15 11 C15.99 11.6496875 15.99 11.6496875 17 12.3125 C19 14 19 14 19.25 16.6875 C19.12625 17.8321875 19.12625 17.8321875 19 19 C13.93466484 16.20982825 9.2351601 13.15189434 4.5625 9.75 C3.92634766 9.29109375 3.29019531 8.8321875 2.63476562 8.359375 C1.08762923 7.24264497 -0.45650773 6.12176137 -2 5 C-1.01 4.34 -0.02 3.68 1 3 C1.66 3.66 2.32 4.32 3 5 C3.33 4.67 3.66 4.34 4 4 C2.68 3.34 1.36 2.68 0 2 C0 1.34 0 0.68 0 0 Z " fill="#5C40C5" transform="translate(110,113)"/>
<path d="M0 0 C1.98 0 3.96 0 6 0 C6 0.66 6 1.32 6 2 C7.04800781 2.14695312 7.04800781 2.14695312 8.1171875 2.296875 C9.02726563 2.44640625 9.93734375 2.5959375 10.875 2.75 C12.23238281 2.95882812 12.23238281 2.95882812 13.6171875 3.171875 C16 4 16 4 17.16015625 6.0390625 C17.57587891 7.00972656 17.57587891 7.00972656 18 8 C20.52733235 8.65555119 20.52733235 8.65555119 23 9 C23.33 9.66 23.66 10.32 24 11 C23.34 11 22.68 11 22 11 C21.67 11.99 21.34 12.98 21 14 C13.69316776 10.16206791 6.68731576 5.84292918 0 1 C0 0.67 0 0.34 0 0 Z " fill="#6136C6" transform="translate(138,117)"/>
<path d="M0 0 C0.99 0 1.98 0 3 0 C3 15.18 3 30.36 3 46 C2.01 46.495 2.01 46.495 1 47 C1 32.81 1 18.62 1 4 C0.34 3.67 -0.32 3.34 -1 3 C-0.34 3 0.32 3 1 3 C0.67 2.01 0.34 1.02 0 0 Z " fill="#6739AF" transform="translate(146,139)"/>
<path d="M0 0 C0 15.18 0 30.36 0 46 C-0.33 46 -0.66 46 -1 46 C-1.495 25.21 -1.495 25.21 -2 4 C-4.31 3.67 -6.62 3.34 -9 3 C-5.73209435 0.82139623 -3.91954654 0 0 0 Z " fill="#F8F0FF" transform="translate(107,71)"/>
<path d="M0 0 C0.391875 0.474375 0.78375 0.94875 1.1875 1.4375 C3.40808374 3.35179633 5.13375709 3.61266988 8 4 C8 4.66 8 5.32 8 6 C9.32 6.66 10.64 7.32 12 8 C12 8.66 12 9.32 12 10 C6.125 9.125 6.125 9.125 5 8 C3.33382885 7.95936168 1.66611905 7.957279 0 8 C-0.38063221 5.6739143 -0.71269945 3.33944736 -1 1 C-0.67 0.67 -0.34 0.34 0 0 Z " fill="#523AD7" transform="translate(82,117)"/>
<path d="M0 0 C0.33 0 0.66 0 1 0 C1.01458252 1.29212402 1.02916504 2.58424805 1.04418945 3.91552734 C1.10205022 8.69787633 1.17928317 13.47974839 1.26245117 18.26171875 C1.29575823 20.33358027 1.32377197 22.40553379 1.34643555 24.47753906 C1.37987563 27.45157173 1.43218505 30.42475679 1.48828125 33.3984375 C1.49467117 34.32868744 1.5010611 35.25893738 1.50764465 36.21737671 C1.52743881 37.07811798 1.54723297 37.93885925 1.56762695 38.82568359 C1.57873001 39.58513275 1.58983307 40.34458191 1.60127258 41.12704468 C1.85957248 43.410719 1.85957248 43.410719 5 45 C2.525 45.495 2.525 45.495 0 46 C0 30.82 0 15.64 0 0 Z " fill="#FCE9FE" transform="translate(149,139)"/>
<path d="M0 0 C0.66 0 1.32 0 2 0 C2 2.64 2 5.28 2 8 C1.34 8 0.68 8 0 8 C0 8.66 0 9.32 0 10 C-0.66 10 -1.32 10 -2 10 C-2 10.66 -2 11.32 -2 12 C-3.32 11.67 -4.64 11.34 -6 11 C-5.67 9.68 -5.34 8.36 -5 7 C-3.68 6.67 -2.36 6.34 -1 6 C-1.020625 5.195625 -1.04125 4.39125 -1.0625 3.5625 C-1 1 -1 1 0 0 Z " fill="#6026CD" transform="translate(110,180)"/>
<path d="M0 0 C4.72843614 1.57313172 8.3433843 4.20641235 12.3125 7.125 C12.95767578 7.59292969 13.60285156 8.06085938 14.26757812 8.54296875 C15.84848894 9.6905929 17.42472301 10.84465477 19 12 C15.93109813 13.53445094 13.29905734 12.54984289 10 12 C9.92910156 11.40445313 9.85820313 10.80890625 9.78515625 10.1953125 C8.70951319 7.1877931 7.14500011 6.49356814 4.4375 4.875 C2.92764241 3.96578778 1.43908361 3.01753387 0 2 C0 1.34 0 0.68 0 0 Z " fill="#5635B9" transform="translate(104,130)"/>
<path d="M0 0 C0.33 0.66 0.66 1.32 1 2 C0.37351562 2.26554687 -0.25296875 2.53109375 -0.8984375 2.8046875 C-1.71570313 3.15789062 -2.53296875 3.51109375 -3.375 3.875 C-4.18710938 4.22304687 -4.99921875 4.57109375 -5.8359375 4.9296875 C-8.13802299 5.92446067 -8.13802299 5.92446067 -10 8 C-10.66 6.02 -11.32 4.04 -12 2 C-7.82262526 0.40861915 -4.46839215 -0.21278058 0 0 Z " fill="#4944DC" transform="translate(92,72)"/>
<path d="M0 0 C0.763125 0.20625 1.52625 0.4125 2.3125 0.625 C2.126875 1.388125 1.94125 2.15125 1.75 2.9375 C1.08430827 5.71467375 1.08430827 5.71467375 2.3125 8.625 C1.3225 8.625 0.3325 8.625 -0.6875 8.625 C-0.6875 6.645 -0.6875 4.665 -0.6875 2.625 C-2.3375 2.295 -3.9875 1.965 -5.6875 1.625 C-2.6875 -0.375 -2.6875 -0.375 0 0 Z " fill="#4C40DB" transform="translate(109.6875,67.375)"/>
<path d="M0 0 C0.66 0.33 1.32 0.66 2 1 C1.835 1.5775 1.67 2.155 1.5 2.75 C0.85537969 5.26664369 0.85537969 5.26664369 1 9 C-0.32 8.67 -1.64 8.34 -3 8 C-3.36923077 3.44615385 -3.36923077 3.44615385 -1.5 1.1875 C-1.005 0.795625 -0.51 0.40375 0 0 Z " fill="#6121C9" transform="translate(174,128)"/>
<path d="M0 0 C0 2.97 0 5.94 0 9 C-0.33 9 -0.66 9 -1 9 C-1.33 7.35 -1.66 5.7 -2 4 C-4.31 3.67 -6.62 3.34 -9 3 C-5.73209435 0.82139623 -3.91954654 0 0 0 Z " fill="#E5E3FA" transform="translate(107,71)"/>
<path d="M0 0 C0.99 0.66 1.98 1.32 3 2 C3 2.99 3 3.98 3 5 C1.35 5.33 -0.3 5.66 -2 6 C-2.33 4.68 -2.66 3.36 -3 2 C-2.01 1.34 -1.02 0.68 0 0 Z " fill="#6A19C9" transform="translate(173,177)"/>
<path d="M0 0 C0.99 0 1.98 0 3 0 C5.1875 2.5 5.1875 2.5 7 5 C5.35 5.33 3.7 5.66 2 6 C2 5.01 2 4.02 2 3 C1.01 2.67 0.02 2.34 -1 2 C-0.67 1.34 -0.34 0.68 0 0 Z " fill="#592DCD" transform="translate(131,129)"/>
<path d="M0 0 C3.465 1.98 3.465 1.98 7 4 C6.01 5.485 6.01 5.485 5 7 C2.525 6.01 2.525 6.01 0 5 C0 3.35 0 1.7 0 0 Z " fill="#F0EBFD" transform="translate(85,125)"/>
<path d="M0 0 C0.99 0.33 1.98 0.66 3 1 C3.33 3.31 3.66 5.62 4 8 C3.01 8 2.02 8 1 8 C0.67 5.36 0.34 2.72 0 0 Z " fill="#671DC9" transform="translate(144,180)"/>
<path d="M0 0 C0.33 0 0.66 0 1 0 C1 2.31 1 4.62 1 7 C-3.455 6.01 -3.455 6.01 -8 5 C-4 4 -4 4 -1 4 C-0.67 2.68 -0.34 1.36 0 0 Z " fill="#E5CFF7" transform="translate(106,178)"/>
<path d="M0 0 C3.93673644 1.31224548 6.22719294 2.91910327 9 6 C4.9666466 6 3.16482462 4.39120082 0 2 C0 1.34 0 0.68 0 0 Z " fill="#6349B9" transform="translate(104,130)"/>
<path d="M0 0 C4.75 0.875 4.75 0.875 7 2 C7 2.99 7 3.98 7 5 C5.68 4.67 4.36 4.34 3 4 C3 3.34 3 2.68 3 2 C2.01 1.67 1.02 1.34 0 1 C0 0.67 0 0.34 0 0 Z " fill="#6226D0" transform="translate(162,129)"/>
<path d="M0 0 C4.67692308 1.47692308 4.67692308 1.47692308 6.3125 4.125 C6.539375 4.74375 6.76625 5.3625 7 6 C4.50638429 4.79618552 2.31856917 3.54571278 0 2 C0 1.34 0 0.68 0 0 Z " fill="#613BB5" transform="translate(138,137)"/>
<path d="M0 0 C1.98 0 3.96 0 6 0 C6.33 1.65 6.66 3.3 7 5 C3.535 3.02 3.535 3.02 0 1 C0 0.67 0 0.34 0 0 Z " fill="#6C43BC" transform="translate(159,131)"/>
</svg>
